<?xml version="1.0" standalone="no"?>
<!DOCTYPE svg PUBLIC "-//W3C//DTD SVG 1.1//EN"
  "http://www.w3.org/Graphics/SVG/1.1/DTD/svg11.dtd">
<svg width="173mm" height="205mm" viewBox="-131 -74 173 205" xmlns="http://www.w3.org/2000/svg" version="1.1">
	<title>svgOutput</title>
	<desc>made with tinkercad</desc>
<path d="M -130 -19.99799919128418 L -127 -19.99799919128418 L -127 -20 L -130 -20 L -130 -40 L -127 -40 L -127 -40.00299835205078 L -130 -40.00299835205078 L -130 -53.00299835205078 L -130 -70.5 L -129.96200561523438 -70.93399810791016 L -129.8489990234375 -71.3550033569336 L -129.6649932861328 -71.75 L -129.4149932861328 -72.10700225830078 L -129.10699462890625 -72.41500091552734 L -128.75 -72.66500091552734 L -128.35499572753906 -72.8489990234375 L -127.93399810791016 -72.96199798583984 L -127.5 -73 L -127 -73 L -122 -73 L -110 -73 L -41 -73 L -29 -73 L -24 -73 L -23.50200080871582 -73 L -23.06800079345703 -72.96199798583984 L -22.648000717163086 -72.8489990234375 L -22.25200080871582 -72.66500091552734 L -21.895999908447266 -72.41500091552734 L -21.58799934387207 -72.10700225830078 L -21.33799934387207 -71.75 L -21.15399932861328 -71.3550033569336 L -21.040000915527344 -70.93399810791016 L -21.00200080871582 -70.5 L -21.00200080871582 -70 L -21 -70 L -21 -53 L -21 10 L 0 10 L 32.768001556396484 10 L 38.5 10 L 38.933998107910156 10.038000106811523 L 39.35499954223633 10.151000022888184 L 39.75 10.335000038146973 L 40.106998443603516 10.585000038146973 L 40.415000915527344 10.892999649047852 L 40.665000915527344 11.25 L 40.8489990234375 11.645000457763672 L 40.96200180053711 12.065999984741211 L 41 12.5 L 41 13 L 41 16.384000778198242 L 41 32.768001556396484 L 41 65.53600311279297 L 41 73.72799682617188 L 41 76 L 41 81.91999816894531 L 41 89 L 41 90.11199951171875 L 41 97 L 41 98.30400085449219 L 41 108.5 L 41 114.68800354003906 L 41 122.87999725341797 L 41 127.5 L 40.96900177001953 127.89099884033203 L 40.87799835205078 128.2729949951172 L 40.72800064086914 128.63499450683594 L 40.52299880981445 128.968994140625 L 40.268001556396484 129.26800537109375 L 39.96900177001953 129.5229949951172 L 39.6349983215332 129.72799682617188 L 39.27299880981445 129.8780059814453 L 38.89099884033203 129.968994140625 L 38.5 130 L 38 130 L 32.768001556396484 130 L 5 130 L 0 130 L -16.384000778198242 130 L -24.576000213623047 130 L -27.623180389404297 130 L -28.672000885009766 130 L -29 130 L -29.947599411010742 130 L -32.768001556396484 130 L -40.959999084472656 130 L -49.152000427246094 130 L -57.34400177001953 130 L -65.53600311279297 130 L -98.30400085449219 130 L -106.49600219726562 130 L -110 130 L -110.00299835205078 130 L -110.59200286865234 130 L -112.84760284423828 130 L -114.68800354003906 130 L -119.60240173339844 130 L -122.87999725341797 130 L -127 130 L -127.5 130 L -127.93399810791016 129.96200561523438 L -128.35499572753906 129.8489990234375 L -128.75 129.6649932861328 L -129.10699462890625 129.4149932861328 L -129.4149932861328 129.10699462890625 L -129.6649932861328 128.75 L -129.8489990234375 128.35499572753906 L -129.96200561523438 127.93399810791016 L -129.99923706054688 127.50868225097656 L -130 127.4884033203125 L -130 122.87999725341797 L -130 114.68800354003906 L -130 98.30400085449219 L -130 65.53600311279297 L -130 30 L -130 10 L -130 -19.99799919128418 M -57.6609992980957 120.78199768066406 L -57.6609992980957 118.78399658203125 L -57.6609992980957 117.31800079345703 L -59.07073974609375 116.50411224365234 L -59.266639709472656 116.3910140991211 L -60.15721130371094 115.8768539428711 L -60.242069244384766 115.82786560058594 L -60.6609992980957 115.58599853515625 L -61.16425323486328 115.87654113769531 L -61.439998626708984 116.0357437133789 L -63.6609992980957 117.31800079345703 L -63.6609992980957 118.37598419189453 L -63.6609992980957 118.78399658203125 L -63.6609992980957 120.78199768066406 L -63.093929290771484 121.10939025878906 L -62.913307189941406 121.21366882324219 L -62.48554229736328 121.46063232421875 L -62.30729675292969 121.56353759765625 L -61.77377700805664 121.8715591430664 L -61.54294204711914 122.00482177734375 L -61.439998626708984 122.06425476074219 L -60.6609992980957 122.51399993896484 L -57.6609992980957 120.78199768066406 M -61.72686767578125 93.99864196777344 L -61.439998626708984 94.16426086425781 L -61.364234924316406 94.20800018310547 L -60.6609992980957 94.61399841308594 L -59.957767486572266 94.20800018310547 L -57.6609992980957 92.88200378417969 L -57.6609992980957 90.11199951171875 L -57.6609992980957 89.41799926757812 L -60.6609992980957 87.68599700927734 L -61.16425323486328 87.97654724121094 L -61.439998626708984 88.1357421875 L -63.6609992980957 89.41799926757812 L -63.6609992980957 90.11199951171875 L -63.6609992980957 92.88200378417969 L -63.64317321777344 92.89228820800781 L -63.584415435791016 92.92621612548828 L -62.982120513916016 93.27394104003906 L -62.88337707519531 93.33094787597656 L -62.48554229736328 93.56063079833984 L -62.30729675292969 93.66353607177734 L -61.728118896484375 93.99791717529297 L -61.72686767578125 93.99864196777344 M -109.72899627685547 72.94999694824219 L -110 72.94999694824219 L -110.00299835205078 72.94999694824219 L -113.19300079345703 72.94999694824219 L -113.64216613769531 73.72799682617188 L -114.68800354003906 75.53948974609375 L -114.92500305175781 75.94999694824219 L -114.68800354003906 76.36051177978516 L -113.84307861328125 77.8239974975586 L -113.19300079345703 78.94999694824219 L -110.00299835205078 78.94999694824219 L -110 78.94999694824219 L -109.72899627685547 78.94999694824219 L -109.07892608642578 77.8239974975586 L -107.99700164794922 75.94999694824219 L -109.27983093261719 73.72799682617188 L -109.72899627685547 72.94999694824219 M -31.593000411987305 121.1500015258789 L -31.598735809326172 121.1599349975586 L -31.984939575195312 121.8288803100586 L -32.04194641113281 121.92761993408203 L -32.271629333496094 122.32545471191406 L -32.37453842163086 122.50370025634766 L -32.5917854309082 122.87999725341797 L -32.768001556396484 123.18521881103516 L -33.32500076293945 124.1500015258789 L -32.768001556396484 125.11478424072266 L -31.693456649780273 126.97599792480469 L -31.593000411987305 127.1500015258789 L -29 127.1500015258789 L -28.672000885009766 127.1500015258789 L -28.128999710083008 127.1500015258789 L -27.907413482666016 126.76618957519531 L -26.39699935913086 124.1500015258789 L -27.130212783813477 122.87999725341797 L -28.128999710083008 121.1500015258789 L -29 121.1500015258789 L -30.210126876831055 121.1500015258789 L -31.593000411987305 121.1500015258789 M -38.292999267578125 72.94999694824219 L -38.742164611816406 73.72799682617188 L -40.025001525878906 75.94999694824219 L -38.943077087402344 77.8239974975586 L -38.292999267578125 78.94999694824219 L -34.82899856567383 78.94999694824219 L -34.178924560546875 77.8239974975586 L -33.09700012207031 75.94999694824219 L -34.37983322143555 73.72799682617188 L -34.82899856567383 72.94999694824219 L -38.292999267578125 72.94999694824219 M -114.49299621582031 121.1500015258789 L -114.68800354003906 121.48776245117188 L -115.49178314208984 122.87999725341797 L -116.2249984741211 124.1500015258789 L -114.68800354003906 126.81224060058594 L -114.59345245361328 126.97599792480469 L -114.49299621582031 127.1500015258789 L -111.02899932861328 127.1500015258789 L -110.92854309082031 126.97599792480469 L -110.59200286865234 126.39307403564453 L -110.00299835205078 125.37286376953125 L -110 125.36766815185547 L -109.2969970703125 124.1500015258789 L -110 122.93233489990234 L -110.00299835205078 122.92713928222656 L -110.03021240234375 122.87999725341797 L -111.02899932861328 121.1500015258789 L -113.11012268066406 121.1500015258789 L -113.25890350341797 121.1500015258789 L -114.32926940917969 121.1500015258789 L -114.49299621582031 121.1500015258789 z" fill="none" stroke="rgb(0,0,255)" stroke-width="0.01mm" />
</svg>